<svg width="16" height="18" viewBox="0 0 16 18" fill="none" xmlns="http://www.w3.org/2000/svg">
<path d="M6.49477 3.83064C5.81514 4.05779 5.46415 4.2733 4.99619 4.82969C4.47848 5.44524 4.40419 6.71486 4.40419 6.71486C4.40419 6.71486 4.23768 9.712 4.40419 12.5426C4.46384 13.5566 4.90372 14.7072 6.5688 14.8738C8.941 15.111 14.3947 14.7072 14.3947 14.7072V16.0393V17.3714C14.3947 17.3714 9.56594 17.8709 6.40229 17.7044C5.06361 17.6339 3.93546 17.397 2.90562 16.5388C1.90653 15.7063 1.57351 15.2068 1.40701 14.5407C1.19894 13.7085 1.17975 13.555 1.0775 12.737L1.07402 12.7091C0.907483 11.3771 1.07401 9.87851 1.07402 8.54644C1.07402 7.21438 1.40705 4.88326 1.40705 4.88326C1.40705 4.88326 1.64707 3.80647 1.90657 3.38469C2.12475 3.03007 2.5726 2.55215 2.5726 2.55215C2.5726 2.55215 3.29096 1.57387 5.23673 1.22008C7.06832 0.887063 9.64052 0.969068 11.3975 1.22007C12.5631 1.38659 13.5268 2.35728 13.8952 2.88517C14.4484 3.6779 14.7277 5.21628 14.7277 5.21628C14.7277 5.21628 14.8386 5.82373 14.8942 6.21533C15.1323 7.89041 14.8942 10.5445 14.8942 10.5445L11.564 10.5445L11.7306 8.71295C11.7306 8.71295 11.8971 7.21438 11.7306 6.04882C11.6335 5.36919 10.9469 4.47325 10.565 4.21723C9.89689 3.76938 9.29287 3.75641 8.5669 3.71771C7.785 3.67602 7.2374 3.58243 6.49477 3.83064Z" fill="#884FFE" stroke="#884FFE" stroke-width="0.5"/>
<g filter="url(#filter0_b_179485_4094)">
<path d="M3.76969 13.5959L13.3615 11.2044C13.7366 11.1109 13.9649 10.731 13.8714 10.3558L13.4517 8.67251C13.3582 8.2974 12.9782 8.06913 12.6031 8.16265L3.0113 10.5542C2.63618 10.6477 2.40791 11.0276 2.50144 11.4027L2.92114 13.086C3.01466 13.4612 3.39457 13.6894 3.76969 13.5959Z" fill="white" fill-opacity="0.75"/>
</g>
<defs>
<filter id="filter0_b_179485_4094" x="-1.51953" y="4.14172" width="19.4119" height="13.4752" filterUnits="userSpaceOnUse" color-interpolation-filters="sRGB">
<feFlood flood-opacity="0" result="BackgroundImageFix"/>
<feGaussianBlur in="BackgroundImageFix" stdDeviation="2"/>
<feComposite in2="SourceAlpha" operator="in" result="effect1_backgroundBlur_179485_4094"/>
<feBlend mode="normal" in="SourceGraphic" in2="effect1_backgroundBlur_179485_4094" result="shape"/>
</filter>
</defs>
</svg>
